<?xml version="1.0" encoding="UTF-8"?>
<svg xmlns="http://www.w3.org/2000/svg" xmlns:xlink="http://www.w3.org/1999/xlink" width="5000" height="5000" viewBox="0 0 5000 5000">
<path fill-rule="evenodd" fill="rgb(99.21875%, 92.576599%, 86.326599%)" fill-opacity="1" d="M 2311.121094 4672.386719 C 2311.121094 4672.386719 2308.53125 4336.121094 2326 4197.929688 C 2326 4197.929688 2383.949219 3448.679688 2306.988281 3225.828125 C 2306.988281 3225.828125 2311.03125 3097.730469 2111.320312 2904.011719 C 2111.320312 2904.011719 1766.988281 2582.199219 1738.789062 2508.210938 C 1710.601562 2434.230469 1742.320312 2270.769531 1785.191406 2130.289062 C 1785.191406 2130.289062 1842.980469 1920.179688 1855.75 1887.761719 C 1868.519531 1855.351562 1928.339844 1774.738281 1960.769531 1761.21875 L 1872.261719 1224.941406 L 1788.179688 654.179688 C 1788.179688 654.179688 1728.179688 416.460938 1814.160156 341.941406 C 1900.148438 267.421875 2003.539062 334.878906 2036.921875 454.519531 C 2070.308594 574.160156 2139.261719 969.039062 2139.261719 969.039062 C 2139.261719 969.039062 2207.128906 1294.609375 2245.359375 1384.539062 L 2264.410156 1377.820312 C 2264.410156 1377.820312 2252.78125 1194.339844 2311.578125 1156.53125 C 2370.378906 1118.71875 2459.511719 1106.640625 2511.441406 1211.871094 L 2572.070312 1373.269531 L 2663.941406 1322.398438 C 2663.941406 1322.398438 2781.191406 1287.089844 2835.21875 1402.351562 L 2864.128906 1480.488281 C 2864.128906 1480.488281 2878.621094 1453.121094 2918.960938 1442.761719 C 2959.300781 1432.398438 2993.738281 1453.511719 3017.019531 1490.699219 C 3017.019531 1490.699219 3194.269531 1698.648438 3221.160156 1849.699219 C 3221.160156 1849.699219 3283.589844 2221.820312 3258.320312 2377.910156 L 3271.210938 2838.539062 C 3271.210938 2838.539062 3259.03125 3370.820312 3224.859375 3464.878906 C 3224.859375 3464.878906 3190.359375 3882.660156 3224.070312 4136.40625 L 3250.238281 4695.785156 L 2311.121094 4672.386719 "/>
<path fill-rule="evenodd" fill="rgb(0%, 0%, 0%)" fill-opacity="1" d="M 1959.460938 1748.988281 C 1959.460938 1748.988281 1907.121094 1790.070312 1868.859375 1845.371094 C 1851.320312 1870.730469 1836.921875 1899.078125 1831.179688 1927.820312 C 1812.679688 2021.371094 1736.988281 2206.039062 1712.949219 2354.730469 C 1705.878906 2398.488281 1703.410156 2439.300781 1707.410156 2474.089844 C 1711.230469 2507.300781 1721.359375 2535.300781 1737.820312 2556.570312 C 1755.28125 2578.109375 1780.300781 2605.679688 1810.839844 2636.339844 C 1870.558594 2696.28125 1951.070312 2768.589844 2026.710938 2840.53125 C 2058.339844 2870.609375 2089.398438 2900.28125 2117.46875 2929.128906 C 2189.589844 3003.289062 2244.628906 3068.390625 2254.890625 3100.339844 C 2299.988281 3243.199219 2318.589844 3394.050781 2324.238281 3548.628906 C 2326.160156 3601.488281 2326.46875 3654.769531 2326.109375 3708.351562 C 2325.75 3761.488281 2324.738281 3814.910156 2323.050781 3868.46875 C 2319.089844 3993.480469 2311.808594 4119.128906 2305.738281 4243.273438 C 2299.488281 4371.21875 2295.089844 4497.449219 2297.609375 4619.628906 C 2297.609375 4624.320312 2301.421875 4628.132812 2306.109375 4628.132812 C 2310.808594 4628.132812 2314.621094 4624.320312 2314.621094 4619.628906 C 2318.609375 4413.046875 2344.769531 4195.683594 2360.769531 3977.859375 C 2367.570312 3885.320312 2372.808594 3792.71875 2373.28125 3700.949219 C 2373.601562 3638.660156 2371.421875 3576.769531 2366.941406 3515.601562 C 2356.191406 3368.628906 2330.890625 3225.839844 2283.421875 3090.828125 C 2274.539062 3065.378906 2238.179688 3020.859375 2187.890625 2966.71875 C 2162.75 2939.648438 2133.960938 2910.160156 2104.039062 2878.851562 C 2014.039062 2784.660156 1911.449219 2676.480469 1838.941406 2597.039062 C 1813.578125 2569.261719 1791.921875 2545.148438 1776.871094 2525.679688 C 1765 2511 1758.519531 2491.128906 1755.171875 2467.910156 C 1750.699219 2436.859375 1751.96875 2400.308594 1756.679688 2360.871094 C 1774.441406 2212.328125 1840.148438 2025.480469 1854.109375 1931.789062 C 1857.96875 1905.558594 1869.929688 1879.398438 1884.601562 1855.679688 C 1918.738281 1800.480469 1967.171875 1758.328125 1967.171875 1758.328125 C 1969.738281 1756.199219 1970.109375 1752.378906 1967.980469 1749.800781 C 1965.851562 1747.21875 1962.03125 1746.859375 1959.460938 1748.988281 "/>
<path fill-rule="evenodd" fill="rgb(0%, 0%, 0%)" fill-opacity="1" d="M 1967.269531 2207.71875 C 1966.761719 2209.878906 1967.46875 2212.25 1969.308594 2213.769531 C 1969.789062 2214.191406 1978.519531 2216.238281 1979.429688 2208.390625 C 1979.660156 2206.441406 1979.980469 2202.351562 1980.390625 2196.421875 C 1981.820312 2175.71875 1984.179688 2132.160156 1986.171875 2079.101562 C 1989.851562 1981.410156 1992.179688 1851.871094 1985.171875 1773.550781 C 1979.230469 1709.449219 1964.179688 1607.441406 1946.210938 1499.460938 C 1932.441406 1416.679688 1918.011719 1330.25 1903.839844 1255.039062 C 1891.511719 1189.609375 1879.089844 1132.851562 1872.621094 1093.519531 C 1861.539062 1027.578125 1839.800781 887.660156 1819.589844 767.539062 C 1810.621094 714.21875 1802.660156 664.671875 1793.898438 627.441406 C 1779.46875 562.808594 1779.789062 485.128906 1795.28125 423.308594 C 1807.558594 374.289062 1828.238281 334.878906 1861.78125 325.921875 C 1889.25 318.550781 1914.71875 325.898438 1935.960938 338.738281 C 1961.78125 354.328125 1981.480469 378.339844 1991.269531 397.328125 C 2008.53125 430.628906 2022.078125 476.28125 2033.808594 526.148438 C 2045.96875 577.808594 2055.679688 634 2064.25 686.421875 C 2074.941406 751.808594 2083.898438 811.378906 2091.261719 849.679688 C 2117.640625 981.679688 2159.898438 1156.21875 2204.351562 1309.609375 C 2240.550781 1434.53125 2278.191406 1545.339844 2308.699219 1608.179688 C 2310.671875 1612.441406 2315.730469 1614.300781 2319.988281 1612.328125 C 2324.25 1610.359375 2326.121094 1605.300781 2324.148438 1601.039062 C 2296.390625 1537.78125 2263.921875 1426.71875 2232.488281 1301.988281 C 2193.710938 1148.140625 2156.71875 973.628906 2134.691406 841.710938 C 2127.859375 802.601562 2120.589844 741.148438 2109.941406 674.25 C 2104.101562 637.53125 2097.210938 599.199219 2089.128906 561.949219 C 2073.621094 490.46875 2053.511719 423.019531 2028.488281 377.449219 C 2015.300781 353.589844 1989.390625 323.570312 1955.871094 304.648438 C 1925.710938 287.621094 1889.761719 279.171875 1851.738281 290.578125 C 1808.589844 303.558594 1777.871094 351.828125 1763.808594 415.910156 C 1749.238281 482.289062 1750.941406 565.089844 1768.25 633.550781 C 1775.589844 663.621094 1783.359375 701.730469 1790.058594 743.628906 C 1793.890625 767.519531 1797.28125 792.640625 1800.46875 818.121094 C 1814.078125 926.628906 1823.898438 1041.519531 1830.550781 1099.5 C 1834.78125 1135.351562 1841.710938 1185.78125 1851.390625 1243.589844 C 1854.679688 1263.21875 1858.371094 1283.679688 1862.371094 1304.710938 C 1873.859375 1365.160156 1887.351562 1430.328125 1900.140625 1493.890625 C 1922.550781 1605.238281 1943.808594 1711.328125 1952.648438 1777.238281 C 1966.960938 1881.28125 1968.660156 2078.449219 1968.039062 2165.550781 C 1967.910156 2184.28125 1967.671875 2197.910156 1967.429688 2204.421875 Z M 1976.328125 2203.941406 C 1973.800781 2202.371094 1970.429688 2202.878906 1968.488281 2205.238281 C 1968.289062 2205.480469 1968.109375 2205.738281 1967.960938 2206 C 1970.320312 2201.289062 1973.839844 2202.238281 1976.328125 2203.941406 "/>
<path fill-rule="evenodd" fill="rgb(0%, 0%, 0%)" fill-opacity="1" d="M 2290.980469 1520.601562 C 2287.210938 1486.148438 2276.609375 1387.320312 2285.421875 1299.488281 C 2287.359375 1280.199219 2290.738281 1261.660156 2294.230469 1244.179688 C 2296.410156 1233.25 2298.109375 1222.710938 2301.140625 1212.929688 C 2305.910156 1197.5 2311.519531 1183.601562 2321.210938 1173.011719 C 2333.21875 1160.039062 2345.628906 1150.339844 2359.191406 1144.960938 C 2365.261719 1142.550781 2371.441406 1140.890625 2377.628906 1140.050781 C 2387.339844 1138.738281 2397.019531 1139.371094 2406.339844 1141.03125 C 2439.671875 1146.960938 2468.390625 1168.671875 2484.859375 1191.730469 C 2495.460938 1206.488281 2505.359375 1233.089844 2516.421875 1265.210938 C 2521.601562 1280.238281 2526.730469 1296.5 2532.378906 1313.308594 C 2537.660156 1329.039062 2543.421875 1345.199219 2549.109375 1361.589844 C 2562.5 1400.21875 2575.988281 1439.679688 2587.808594 1475.261719 C 2605.398438 1528.160156 2619.808594 1571.789062 2626.589844 1589.929688 C 2627.960938 1594.421875 2632.710938 1596.96875 2637.199219 1595.601562 C 2641.691406 1594.238281 2644.238281 1589.488281 2642.871094 1585 C 2636.058594 1556.558594 2621.230469 1467.519531 2599.199219 1378.070312 C 2591.78125 1347.941406 2583.648438 1317.789062 2574.308594 1290.128906 C 2568.359375 1272.511719 2561.628906 1256.039062 2555.058594 1240.988281 C 2541.011719 1208.800781 2526.648438 1183.269531 2513.960938 1168.71875 C 2490.609375 1141.980469 2452.210938 1119.339844 2410.039062 1114.710938 C 2394.550781 1113.011719 2378.730469 1113.960938 2362.578125 1117.089844 C 2340.898438 1121.28125 2318.839844 1129.800781 2297.179688 1146.578125 C 2274.878906 1163.640625 2258.289062 1189.769531 2248.570312 1221.949219 C 2245.171875 1233.238281 2243.058594 1245.390625 2241.78125 1257.910156 C 2237.351562 1301.25 2242.160156 1349.460938 2249.378906 1393.558594 C 2258.761719 1450.839844 2273.070312 1500.378906 2279.070312 1522.800781 C 2279.679688 1526.089844 2282.839844 1528.261719 2286.121094 1527.660156 C 2289.410156 1527.050781 2291.589844 1523.890625 2290.980469 1520.601562 "/>
<path fill-rule="evenodd" fill="rgb(0%, 0%, 0%)" fill-opacity="1" d="M 2592.308594 1373.371094 C 2606.671875 1358.808594 2632.808594 1346.710938 2663.710938 1341.640625 C 2674.648438 1339.839844 2685.949219 1339.761719 2697.769531 1340.230469 C 2708.371094 1340.640625 2718.898438 1343.148438 2729.988281 1345.230469 C 2735.578125 1346.269531 2741.300781 1346.648438 2747.109375 1347.871094 C 2755.730469 1349.691406 2764.441406 1351.160156 2773.308594 1354.648438 C 2784.078125 1359.101562 2793.949219 1363.660156 2801.851562 1371.148438 C 2805.121094 1374.25 2807.929688 1377.820312 2810.488281 1381.558594 C 2814.320312 1387.160156 2817.300781 1393.359375 2820.121094 1399.800781 C 2829.941406 1422.210938 2834.53125 1448.398438 2840.238281 1477.480469 C 2842.460938 1488.789062 2844.570312 1500.488281 2847.378906 1512.53125 C 2848.589844 1517.738281 2849.988281 1522.988281 2851.578125 1528.261719 C 2855.160156 1540.160156 2859.308594 1552.25 2864.121094 1564.539062 C 2878.519531 1601.339844 2897.519531 1639.28125 2923.800781 1678.671875 C 2926 1682.820312 2931.148438 1684.410156 2935.300781 1682.210938 C 2939.449219 1680.019531 2941.03125 1674.859375 2938.839844 1670.71875 C 2928.699219 1645.230469 2921.738281 1620.808594 2915.410156 1597.121094 C 2908.359375 1570.738281 2903.75 1545.660156 2898.230469 1522.058594 C 2895.789062 1511.660156 2893.058594 1501.628906 2890.089844 1491.96875 C 2882.121094 1466.070312 2873.128906 1442.828125 2863.609375 1421.738281 C 2857.410156 1407.980469 2850.648438 1395.53125 2843.21875 1383.941406 C 2837.839844 1375.558594 2831.96875 1367.898438 2826 1360.359375 C 2822.921875 1356.460938 2819.890625 1352.609375 2816.78125 1348.730469 C 2809.441406 1339.558594 2801.488281 1331.261719 2791.761719 1323.351562 C 2781.769531 1315.101562 2771.609375 1308.71875 2760.828125 1303.609375 C 2753.140625 1299.960938 2745.261719 1297.171875 2737.230469 1295.75 C 2716.101562 1292 2695.289062 1294.789062 2676.289062 1300.089844 C 2631.601562 1312.558594 2596.949219 1340.671875 2582.621094 1366.101562 C 2580.609375 1368.769531 2581.148438 1372.570312 2583.828125 1374.578125 C 2586.5 1376.578125 2590.300781 1376.039062 2592.308594 1373.371094 "/>
<path fill-rule="evenodd" fill="rgb(0%, 0%, 0%)" fill-opacity="1" d="M 3237.851562 4645.6875 C 3237.851562 4646.003906 3237.859375 4646.324219 3237.890625 4646.644531 C 3237.898438 4646.757812 3237.949219 4646.886719 3238.039062 4647.023438 C 3238.921875 4651.699219 3242.210938 4652.371094 3245.660156 4651.441406 C 3250.179688 4652.699219 3254.980469 4651.957031 3254.851562 4644.660156 C 3254.828125 4643.410156 3254.769531 4640.789062 3254.671875 4636.898438 C 3254.339844 4623.933594 3253.589844 4596.832031 3252.558594 4559.800781 C 3250.488281 4485.542969 3247.519531 4371.4375 3243.851562 4251.480469 C 3238.378906 4072.515625 3231.679688 3880.691406 3228.679688 3789.109375 C 3226.460938 3739.601562 3230.800781 3670.890625 3236.761719 3596.640625 C 3244.640625 3498.640625 3255.71875 3391.121094 3265.53125 3305.238281 C 3268.570312 3277.851562 3282.308594 3170.078125 3285.660156 3019.929688 C 3287.550781 2935.75 3286.441406 2838.269531 3277.75 2734.109375 C 3275.789062 2699.351562 3274.480469 2665.328125 3274.050781 2631.980469 C 3272.140625 2483.628906 3285.230469 2348.859375 3286.21875 2221.648438 C 3286.808594 2144.988281 3282.730469 2071.160156 3272.839844 1999.230469 C 3251.359375 1843.179688 3198.96875 1696.128906 3077.691406 1547.53125 C 3032.078125 1491.910156 3000.828125 1448.691406 2965.691406 1435.410156 C 2937.640625 1424.820312 2906.550781 1431.359375 2864.339844 1466.46875 C 2861.71875 1468.550781 2861.28125 1472.359375 2863.351562 1474.980469 C 2865.429688 1477.601562 2869.238281 1478.039062 2871.859375 1475.96875 C 2909.441406 1447.621094 2935.710938 1440.988281 2959.289062 1451.199219 C 2991.730469 1465.25 3018.078125 1508.238281 3058.46875 1562.550781 C 3139.679688 1671.378906 3184.570312 1777.839844 3208.96875 1886.539062 C 3223.648438 1951.96875 3230.488281 2018.179688 3233.820312 2086.238281 C 3235.988281 2130.511719 3236.171875 2175.558594 3236.640625 2221.660156 C 3237.941406 2349.140625 3237.371094 2484.5 3245.558594 2632.949219 C 3247.421875 2666.589844 3249.570312 2700.910156 3252.710938 2735.941406 C 3259.179688 2839.148438 3258.691406 2935.628906 3254.699219 3018.839844 C 3247.578125 3167.199219 3230.011719 3273.28125 3226.179688 3300.261719 C 3214.238281 3386.410156 3199.058594 3494.148438 3190.210938 3592.679688 C 3183.328125 3669.210938 3180.46875 3740.210938 3183.03125 3791.28125 C 3188.71875 3882.730469 3200.269531 4074.324219 3211.789062 4253.003906 C 3219.511719 4372.761719 3227.351562 4486.632812 3232.261719 4560.757812 C 3234.710938 4597.707031 3236.488281 4624.742188 3237.328125 4637.679688 C 3237.578125 4641.511719 3237.738281 4644.09375 3237.820312 4645.324219 L 3237.851562 4645.6875 "/>
</svg>
