<?xml version="1.0" encoding="UTF-8"?>
<svg xmlns="http://www.w3.org/2000/svg" xmlns:xlink="http://www.w3.org/1999/xlink" width="5000" height="5000" viewBox="0 0 5000 5000">
<path fill-rule="evenodd" fill="rgb(99.21875%, 92.576599%, 86.326599%)" fill-opacity="1" d="M 325.257812 4456.511719 C 325.257812 4456.511719 450.125 4318.648438 552.65625 4137.292969 C 552.65625 4137.292969 877.96875 3525.808594 888.1875 3512.410156 C 898.40625 3499 1031.5 3251.558594 1175.058594 3151.910156 C 1175.058594 3151.910156 1446.628906 2717.488281 1468.730469 2408.789062 C 1468.730469 2408.789062 1518.960938 1824.640625 1503.339844 1604.058594 C 1503.339844 1604.058594 1503.449219 1164.859375 1583.96875 989.871094 C 1583.96875 989.871094 1626.160156 866.828125 2006.078125 754.679688 C 2006.078125 754.679688 2432.5 661.070312 2619.128906 610.359375 C 2619.128906 610.359375 2945.300781 476.691406 3044.949219 454.960938 C 3044.949219 454.960938 3192.679688 418.210938 3254.359375 500.171875 C 3254.359375 500.171875 3339.550781 575.230469 3320.089844 808.75 L 3860.441406 751.671875 C 3860.441406 751.671875 4126.328125 683.101562 4324.449219 610.898438 C 4324.449219 610.898438 4593.261719 492.078125 4647.738281 573.410156 C 4647.738281 573.410156 4733.550781 666.648438 4492.179688 887.550781 C 4492.179688 887.550781 4290.328125 1067.890625 4045.039062 1123.320312 C 4045.039062 1123.320312 3798.589844 1175.660156 3518.890625 1269.621094 L 3280.089844 1340.898438 C 3280.089844 1340.898438 3290.121094 1506.789062 3186.5 1656.769531 C 3186.5 1656.769531 3293.390625 1643.941406 3380.03125 1589.5 C 3380.03125 1589.5 3696.660156 1325.378906 3898.109375 1312.929688 C 4099.558594 1300.480469 4235.609375 1317.230469 4362.488281 1384.378906 C 4362.488281 1384.378906 4712.109375 1546.441406 4665.890625 1778.671875 C 4665.890625 1778.671875 4663.929688 1847.800781 4419.511719 1811.171875 C 4419.511719 1811.171875 4159.078125 1760.910156 4034.238281 1813.058594 C 3909.410156 1865.210938 3653.710938 2019.921875 3480.609375 2259.910156 C 3480.609375 2259.910156 3222.269531 2616.960938 3135.589844 2762.738281 C 3135.589844 2762.738281 2942.789062 2983.828125 2759.648438 3140.761719 C 2759.648438 3140.761719 2548.460938 3331.339844 2413.851562 3541.960938 C 2413.851562 3541.960938 2185.871094 3892.871094 2105.101562 4021.035156 C 2105.101562 4021.035156 1875.761719 4432.292969 1816.699219 4561.578125 L 325.257812 4456.511719 "/>
<path fill-rule="evenodd" fill="rgb(0%, 0%, 0%)" fill-opacity="1" d="M 374.292969 4409.042969 C 465.03125 4296.082031 536.089844 4192.308594 595.625 4094.613281 C 700.316406 3922.828125 769.878906 3770.441406 848.808594 3620.839844 C 901.578125 3520.820312 958.300781 3421.910156 1033.851562 3319.601562 C 1064.851562 3276.960938 1099.230469 3249.261719 1136.691406 3214.019531 C 1180.769531 3172.558594 1229.191406 3121.589844 1281.878906 3029.46875 C 1327.609375 2949.511719 1376.621094 2838 1428.988281 2673.519531 C 1516.070312 2400.570312 1517.429688 2012.238281 1523.980469 1666.800781 C 1525.101562 1607.71875 1526.53125 1549.898438 1528.640625 1494.171875 C 1532.171875 1401.300781 1537.671875 1314.238281 1546.511719 1236.71875 C 1557.671875 1138.949219 1574.429688 1056.679688 1601.191406 997.820312 C 1616.648438 963.839844 1635.28125 938.109375 1658.980469 923.128906 C 1765.941406 855.328125 1881 810.601562 2000.171875 774.570312 C 2083.589844 749.339844 2169.058594 728.390625 2255.628906 708.121094 C 2453.871094 661.730469 2657.410156 618.140625 2852.859375 531.820312 C 3000.328125 466.398438 3120.140625 432.671875 3202.050781 463.808594 C 3284.199219 495.039062 3324.480469 591.519531 3317.898438 781.691406 C 3317.679688 786.378906 3321.308594 790.371094 3326 790.589844 C 3330.691406 790.800781 3334.679688 787.171875 3334.890625 782.488281 C 3346.941406 577.871094 3299.28125 475.269531 3211.609375 439.539062 C 3125.53125 404.449219 2997.101562 434.089844 2839.101562 499.808594 C 2644.191406 581.269531 2441.769531 618.789062 2245.171875 662.03125 C 2157.179688 681.378906 2070.289062 701.710938 1985.871094 727.628906 C 1862.808594 765.410156 1745.050781 814.988281 1635.550781 886.78125 C 1606.109375 906.148438 1582.101562 938.03125 1563.480469 981.101562 C 1536.53125 1043.410156 1520.199219 1130.039062 1510.230469 1232.890625 C 1502.621094 1311.300781 1498.808594 1399.269531 1496.050781 1493.058594 C 1494.398438 1548.949219 1493.140625 1606.898438 1491.75 1666.121094 C 1483.75 2007.488281 1476.730469 2391.289062 1387.671875 2660.078125 C 1334.660156 2819.78125 1285.578125 2927.878906 1240.230469 3005.371094 C 1189.910156 3091.378906 1144.199219 3138.910156 1102.628906 3177.648438 C 1062.609375 3214.960938 1026.429688 3244.820312 993.386719 3290.140625 C 917.675781 3395.601562 860.417969 3496.96875 808.59375 3600.128906 C 732.917969 3750.761719 668.328125 3904.738281 568.859375 4078.8125 C 512.582031 4177.304688 445.40625 4282.355469 358.839844 4397.007812 C 355.519531 4401.273438 356.28125 4407.429688 360.546875 4410.753906 C 364.8125 4414.074219 370.972656 4413.308594 374.292969 4409.042969 "/>
<path fill-rule="evenodd" fill="rgb(0%, 0%, 0%)" fill-opacity="1" d="M 2045.710938 1041.988281 C 2172.859375 1016.769531 2319.828125 992.039062 2465.75 968.058594 C 2614.71875 943.570312 2762.570312 920.351562 2887.109375 899.03125 C 2969.671875 884.898438 3041.960938 871.359375 3097.730469 859.671875 C 3220.988281 832.570312 3309.480469 823.53125 3396.851562 816.859375 C 3487.769531 809.910156 3577.511719 805.53125 3702.789062 787.570312 C 3775.101562 777.210938 3859.210938 762.25 3962.171875 739.53125 C 4176.058594 692.589844 4408.921875 562.769531 4547.410156 545.609375 C 4580.078125 541.558594 4606.898438 543.628906 4625.429688 557.261719 C 4637.539062 566.179688 4645.429688 580.210938 4649.410156 599.828125 C 4655.011719 627.878906 4642.398438 664.71875 4617.601562 705.828125 C 4578.578125 770.519531 4508.558594 843.859375 4420.78125 909.449219 C 4317.179688 986.859375 4188.46875 1053.230469 4054.800781 1080.070312 C 4017.53125 1087.878906 3981.691406 1095.710938 3947.148438 1104.039062 C 3857.859375 1125.578125 3776.859375 1148.851562 3699.300781 1172.828125 C 3525.730469 1226.5 3369.839844 1284.921875 3178.421875 1344.859375 C 3114.660156 1364.960938 3034.871094 1402.089844 2952.191406 1452.738281 C 2884.960938 1493.929688 2815.78125 1543.988281 2751.769531 1600.960938 C 2748.21875 1604.03125 2747.828125 1609.398438 2750.898438 1612.960938 C 2753.96875 1616.5 2759.351562 1616.890625 2762.898438 1613.820312 C 2827.550781 1559.519531 2897.101562 1512.140625 2964.488281 1473.46875 C 3046.28125 1426.519531 3124.820312 1392.5 3187.371094 1374.738281 C 3380.121094 1319.621094 3537.539062 1265.839844 3712.109375 1215.828125 C 3789.339844 1193.699219 3869.988281 1172.570312 3958.511719 1151.878906 C 3992.71875 1143.878906 4028.058594 1135.710938 4064.898438 1127.878906 C 4234.460938 1090.289062 4395.480469 992.308594 4510.269531 886.789062 C 4579.289062 823.339844 4631.53125 757.179688 4659.519531 700.210938 C 4679.761719 659 4687.429688 622.03125 4681.269531 593.238281 C 4675.191406 564.378906 4662.300781 544.488281 4644.421875 531.390625 C 4620.320312 513.75 4586.019531 508.558594 4543.558594 513.488281 C 4404.46875 529.640625 4168.980469 655.828125 3953.800781 700.199219 C 3851.738281 721.121094 3768.421875 734.621094 3696.851562 743.828125 C 3572.5 759.828125 3483.53125 762.570312 3393.398438 768.578125 C 3303.941406 774.550781 3213.378906 783.730469 3087.109375 810.78125 C 3013.761719 827.359375 2911.320312 846.730469 2794.929688 868.988281 C 2659.378906 894.910156 2504.988281 924.550781 2354.859375 954.980469 C 2245.019531 977.25 2137.589844 1000.238281 2041.558594 1022.851562 C 2036.28125 1023.988281 2032.921875 1029.210938 2034.058594 1034.488281 C 2035.210938 1039.78125 2040.429688 1043.140625 2045.710938 1041.988281 "/>
<path fill-rule="evenodd" fill="rgb(0%, 0%, 0%)" fill-opacity="1" d="M 2497.859375 1437.929688 C 2609.171875 1535.269531 2701.371094 1616.679688 2811.398438 1661.320312 C 2914.589844 1703.191406 3033.320312 1713.070312 3197.441406 1673.648438 C 3267.609375 1656.679688 3330.578125 1627.980469 3389.671875 1593.890625 C 3473.339844 1545.621094 3549.179688 1486.609375 3627.121094 1435.890625 C 3679.199219 1402.011719 3732.148438 1371.78125 3789.628906 1351.96875 C 3861.050781 1326.921875 3950.191406 1316.570312 4043.828125 1320.519531 C 4170.949219 1325.890625 4306.429688 1357.789062 4417.828125 1418.199219 C 4547.070312 1488.28125 4644.050781 1596.609375 4654.050781 1746.648438 C 4655.171875 1763.359375 4647.789062 1774.089844 4634.140625 1780.570312 C 4619.589844 1787.488281 4599.898438 1790.628906 4576.660156 1791.78125 C 4494.519531 1795.851562 4372.160156 1773.980469 4259.871094 1765.039062 C 4174.339844 1758.230469 4094.449219 1759.128906 4040.328125 1782.171875 C 3885.46875 1847.460938 3749.710938 1948.140625 3631.300781 2061.328125 C 3429.308594 2254.429688 3278.761719 2485.558594 3181.328125 2649.601562 C 3129.828125 2736.339844 3075.53125 2803.070312 3019.601562 2860.710938 C 2959.089844 2923.058594 2896.328125 2974.5 2832.609375 3028.480469 C 2743.550781 3103.929688 2652.699219 3184.191406 2561.78125 3301.800781 C 2416.480469 3490.890625 2286.738281 3683.429688 2172.078125 3872.921875 C 2045.160156 4082.6875 1936.710938 4288.585938 1845.140625 4481.230469 C 1843.078125 4485.449219 1844.828125 4490.542969 1849.050781 4492.605469 C 1853.269531 4494.664062 1858.371094 4492.910156 1860.429688 4488.691406 C 1955.691406 4298.691406 2068.308594 4095.996094 2198.890625 3889.511719 C 2316.550781 3703.449219 2448.761719 3514.339844 2596.628906 3329.101562 C 2686.761719 3215.511719 2777.128906 3139.269531 2864.28125 3066.011719 C 2929.488281 3011.199219 2993 2958.050781 3054.078125 2893.828125 C 3111.679688 2833.28125 3166.878906 2762.730469 3219.140625 2671.671875 C 3312.761719 2508.480469 3455.949219 2276.519531 3653.941406 2084.871094 C 3768.738281 1973.738281 3902.269531 1876.730469 4053.46875 1813.441406 C 4103.738281 1792.609375 4177.761719 1793.738281 4256.828125 1800.871094 C 4370.820312 1811.160156 4494.898438 1834.558594 4578.390625 1831.390625 C 4653.941406 1828.519531 4698.359375 1802.050781 4695.148438 1744.128906 C 4685.910156 1578.46875 4581.800781 1456.570312 4439.949219 1377.859375 C 4322.960938 1312.949219 4180.230469 1277.519531 4046.039062 1271.128906 C 3945.539062 1266.339844 3849.859375 1278.019531 3773.121094 1304.738281 C 3712.011719 1326.398438 3655.511719 1358.628906 3600.460938 1395.5 C 3523.761719 1446.871094 3449.761719 1507.070312 3367.679688 1556.609375 C 3312.53125 1589.890625 3253.789062 1618.488281 3187.890625 1635.929688 C 3033.449219 1677.050781 2920.839844 1670.960938 2822.171875 1633.789062 C 2713.578125 1592.898438 2621.78125 1515.269531 2510.558594 1423.011719 C 2506.441406 1419.511719 2500.261719 1420 2496.75 1424.121094 C 2493.25 1428.238281 2493.738281 1434.421875 2497.859375 1437.929688 "/>
<path fill-rule="evenodd" fill="rgb(0%, 0%, 0%)" fill-opacity="1" d="M 3284.300781 1324.75 C 3281.078125 1350.210938 3276.460938 1375 3271.191406 1399.621094 C 3267.679688 1416.050781 3263.738281 1432.238281 3259.371094 1448.339844 C 3256.46875 1459.039062 3253.320312 1469.640625 3250.140625 1480.261719 C 3245.378906 1496.109375 3240.351562 1511.871094 3234.558594 1527.5 C 3218.929688 1569.699219 3198.679688 1610.929688 3170 1650.539062 C 3167.050781 1654.191406 3167.621094 1659.550781 3171.261719 1662.5 C 3174.910156 1665.449219 3180.269531 1664.890625 3183.230469 1661.238281 C 3208.859375 1633.03125 3230.28125 1603.671875 3247.699219 1572.71875 C 3259.890625 1551.078125 3270.339844 1528.871094 3278.429688 1505.859375 C 3286.550781 1482.738281 3292.539062 1458.941406 3296.578125 1434.730469 C 3302.519531 1399.148438 3303.921875 1362.851562 3303.851562 1325.910156 C 3304.171875 1320.519531 3300.050781 1315.878906 3294.648438 1315.558594 C 3289.261719 1315.238281 3284.621094 1319.359375 3284.300781 1324.75 "/>
</svg>
