<?xml version="1.0" encoding="UTF-8"?>
<svg xmlns="http://www.w3.org/2000/svg" xmlns:xlink="http://www.w3.org/1999/xlink" width="5000" height="5000" viewBox="0 0 5000 5000">
<path fill-rule="evenodd" fill="rgb(99.21875%, 92.576599%, 86.326599%)" fill-opacity="1" d="M 2797.679688 4559.164062 L 2752.640625 4250.917969 L 2643.289062 3683.359375 L 2502.53125 3254.890625 C 2502.53125 3254.890625 2413.628906 3052.648438 2291.738281 2947.058594 L 1970.089844 2584.410156 L 1577.980469 2180.789062 C 1577.980469 2180.789062 1373.058594 1982.828125 1352.71875 1878.351562 C 1332.371094 1773.859375 1423.261719 1720.101562 1534.21875 1795.308594 C 1645.191406 1870.511719 1694 1915.011719 1694 1915.011719 C 1694 1915.011719 1875.460938 2081.480469 1928.261719 2102.230469 C 1928.261719 2102.230469 2024.871094 2165.601562 2080.300781 2132.800781 C 2135.730469 2100 2155.21875 1965.320312 2155.21875 1965.320312 L 2164.089844 1920.601562 C 2164.089844 1920.601562 1930.800781 1869.640625 1922.609375 1869.378906 C 1914.410156 1869.109375 1690.101562 1831.480469 1650.03125 1796.191406 C 1609.960938 1760.890625 1608.78125 1699.78125 1726.738281 1687.140625 L 1927.921875 1678.058594 L 2219.96875 1699.898438 L 2247.609375 1581.960938 L 2152.589844 1504.441406 C 2152.589844 1504.441406 2047.359375 1428.609375 1943.628906 1387.328125 L 1676.210938 1307.539062 C 1676.210938 1307.539062 1514.199219 1238.199219 1536.289062 1180.828125 C 1536.289062 1180.828125 1564.410156 1122.21875 1763.921875 1139.738281 L 1998.800781 1180.988281 L 2172.179688 1225.929688 L 2057.800781 1106.671875 L 1783.558594 954.53125 C 1783.558594 954.53125 1660.210938 883.488281 1633.621094 841.128906 C 1607.019531 798.769531 1569.960938 719.261719 1642.320312 709.878906 C 1642.320312 709.878906 1729.871094 690.929688 1934.160156 807.269531 L 2129.78125 921.800781 L 2287.578125 1049.359375 L 2205.25 827.269531 C 2205.25 827.269531 2106.308594 667.921875 2118.660156 563.53125 C 2131 459.140625 2132.480469 404.660156 2180.058594 404.71875 C 2227.640625 404.78125 2317.148438 524.839844 2375.960938 660.691406 L 2525.851562 1010.410156 C 2525.851562 1010.410156 2545.101562 1100.351562 2541.269531 1211.429688 L 2558.429688 1408.53125 L 2606.480469 1441.941406 C 2606.480469 1441.941406 2736.671875 1576.859375 2765.640625 1645.378906 C 2765.640625 1645.378906 2814.148438 1735.839844 2834.199219 1915.921875 L 2908.070312 2429.640625 C 2908.070312 2429.640625 2967.089844 2661.210938 2994.570312 2735.558594 L 3092.71875 2981.449219 L 3180.820312 3232.890625 L 3318.121094 3638.648438 L 3437.378906 3994.199219 L 3561.890625 4336.46875 L 3650.398438 4595.472656 L 2797.679688 4559.164062 "/>
<path fill-rule="evenodd" fill="rgb(0%, 0%, 0%)" fill-opacity="1" d="M 2798.179688 4514.308594 C 2781.410156 4401.742188 2736.390625 4009.5625 2643.53125 3638.511719 C 2590.660156 3427.230469 2521.960938 3222.949219 2435.230469 3079.851562 C 2371.640625 2975.671875 2271.03125 2903.058594 2135.378906 2747.238281 C 2098.71875 2705.121094 2059.25 2656.949219 2017.421875 2600.039062 C 1992.738281 2566.78125 1933.230469 2508.921875 1859.011719 2438.738281 C 1746.421875 2332.289062 1599.699219 2196.421875 1494.988281 2072.941406 C 1439.21875 2007.160156 1395.289062 1945.238281 1375.789062 1893.421875 C 1364.019531 1862.148438 1360.859375 1835.191406 1372.429688 1814.328125 C 1410.828125 1745.191406 1477.089844 1767.660156 1553.96875 1819.179688 C 1695.238281 1913.859375 1868.589844 2110.050781 1992.128906 2147.839844 C 2023.890625 2157.558594 2052.691406 2157.460938 2077.671875 2144.828125 C 2106.589844 2130.21875 2130.96875 2098.191406 2147.371094 2041.71875 C 2162.269531 1990.640625 2184.488281 1905.488281 2207.628906 1812.980469 C 2238.390625 1690.03125 2270.769531 1554.109375 2289.828125 1468.191406 C 2325.511719 1306.410156 2326.871094 1180.890625 2307.058594 1070.121094 C 2283.28125 937.128906 2229.019531 825.679688 2169.558594 697.359375 C 2147.71875 650.769531 2139.550781 598.21875 2140.109375 551.148438 C 2140.578125 510.699219 2147.371094 474.289062 2158.011719 449.46875 C 2161.429688 441.511719 2165.109375 434.859375 2169.25 430.070312 C 2171.078125 427.941406 2172.640625 426.019531 2174.660156 425.460938 C 2183.910156 422.878906 2194.21875 428.398438 2205.929688 436.738281 C 2222.171875 448.308594 2239.410156 466.300781 2256.621094 488.429688 C 2291.140625 532.820312 2325.179688 593.351562 2350.03125 654.289062 C 2391.628906 756.308594 2429.539062 821.691406 2465.769531 903.339844 C 2480.101562 935.628906 2494.171875 970.5 2508.078125 1011.328125 C 2537.359375 1097.011719 2525.96875 1242.511719 2537.449219 1354.261719 C 2540.839844 1387.199219 2546.128906 1417.320312 2554.71875 1442.449219 C 2601.769531 1580.03125 2612.148438 1713.148438 2645.03125 1849.429688 C 2653.121094 1882.960938 2662.550781 1916.679688 2674.191406 1950.699219 C 2675.648438 1955.089844 2680.390625 1957.460938 2684.78125 1956 C 2689.171875 1954.539062 2691.539062 1949.789062 2690.078125 1945.398438 C 2644.929688 1806.378906 2636.53125 1672.96875 2605.949219 1536.601562 C 2598.378906 1502.808594 2589.449219 1468.851562 2578.320312 1434.578125 C 2550.398438 1348.601562 2564.121094 1202.859375 2554.171875 1090.390625 C 2551.238281 1057.230469 2546.25 1026.839844 2537.960938 1001.371094 C 2524.261719 959.339844 2510.320312 923.421875 2496.070312 890.128906 C 2461.089844 808.359375 2424.179688 742.78125 2384.109375 640.660156 C 2353.648438 563.011719 2308.988281 485.941406 2266.058594 437.96875 C 2245.289062 414.75 2224.5 398.199219 2205.851562 390.21875 C 2190.828125 383.789062 2176.640625 382.558594 2163.890625 385.960938 C 2153.261719 388.808594 2142.421875 396.570312 2133.011719 409.648438 C 2117.480469 431.230469 2104.539062 470.039062 2099.640625 516.730469 C 2093.25 577.378906 2100.109375 651.480469 2129.550781 715.878906 C 2187.238281 840.640625 2239.300781 949.019531 2263.359375 1078.101562 C 2283.140625 1184.230469 2284.148438 1304.5 2252.320312 1460.21875 C 2234.851562 1546.238281 2204.980469 1682.339844 2176.53125 1805.5 C 2155.179688 1897.96875 2134.640625 1983.121094 2120.75 2034.21875 C 2107.859375 2081.359375 2089.71875 2109.398438 2065.859375 2121.910156 C 2046.578125 2132.019531 2024.050781 2131.640625 1999.300781 2124.199219 C 1877.191406 2087.511719 1707.460938 1891.859375 1569.019531 1796.988281 C 1475.121094 1732.640625 1394.320312 1714.941406 1345.660156 1799.171875 C 1329.761719 1826.671875 1330.390625 1862.671875 1345.339844 1904.589844 C 1364.929688 1959.519531 1409.53125 2025.898438 1467.109375 2096.171875 C 1570.570312 2222.460938 1715.960938 2362.191406 1827.988281 2471.089844 C 1898.609375 2539.738281 1955.839844 2595.679688 1979.269531 2628.019531 C 2021.871094 2686.25 2061.828125 2735.75 2099.429688 2778.640625 C 2233.46875 2931.539062 2334.558594 3000.808594 2398.089844 3102.761719 C 2485.238281 3241.648438 2554.808594 3441.039062 2610.171875 3647.160156 C 2709.050781 4015.375 2761.800781 4405.226562 2780.609375 4517.09375 C 2781.378906 4521.941406 2785.941406 4525.253906 2790.789062 4524.484375 C 2795.628906 4523.714844 2798.949219 4519.15625 2798.179688 4514.308594 "/>
<path fill-rule="evenodd" fill="rgb(0%, 0%, 0%)" fill-opacity="1" d="M 3652.671875 4563.765625 C 3619.371094 4471.613281 3543.089844 4230.128906 3453.269531 3954.980469 C 3425.558594 3870.078125 3396.808594 3781.921875 3366.710938 3694.28125 C 3350.78125 3647.910156 3334.070312 3601.828125 3317.679688 3556.210938 C 3241.929688 3345.398438 3166.570312 3146.789062 3115.070312 3006.050781 C 3086.320312 2927.46875 3065.171875 2866.839844 3051.371094 2833.628906 C 2986.628906 2672.148438 2949.261719 2533.128906 2924.058594 2407.308594 C 2917.308594 2373.609375 2911.421875 2340.859375 2905.980469 2308.898438 C 2900.21875 2275.109375 2894.921875 2242.210938 2890.160156 2209.910156 C 2866.230469 2047.628906 2854.378906 1900.679688 2818.730469 1743.03125 C 2806.578125 1690.171875 2777.671875 1635.410156 2741.691406 1584.339844 C 2685.898438 1505.140625 2613.589844 1434.710938 2564.871094 1393.878906 C 2561.378906 1390.851562 2556.089844 1391.21875 2553.058594 1394.71875 C 2550.019531 1398.210938 2550.398438 1403.5 2553.890625 1406.53125 C 2600.171875 1448.121094 2668.539062 1519.421875 2720.46875 1598.75 C 2752.519531 1647.699219 2778.269531 1699.691406 2787.96875 1749.550781 C 2819.21875 1907.339844 2825.789062 2053.988281 2846.460938 2215.921875 C 2850.648438 2248.789062 2855.371094 2282.289062 2861.289062 2316.570312 C 2866.921875 2349.109375 2873.578125 2382.351562 2881.398438 2416.480469 C 2910.511719 2543.421875 2955.148438 2682.660156 3027.121094 2843.898438 C 3038.308594 2869.5 3055.421875 2911.28125 3075.441406 2965.878906 C 3088.730469 3002.128906 3103.109375 3044.050781 3118.789062 3090.269531 C 3172.898438 3249.78125 3238.359375 3461.699219 3309.871094 3675.039062 C 3333.230469 3744.71875 3357.789062 3814.351562 3381.929688 3882.621094 C 3415.988281 3978.929688 3450.03125 4072.21875 3481.398438 4158.28125 C 3550.410156 4347.59375 3607.960938 4501.164062 3636.058594 4570.136719 C 3637.820312 4574.71875 3642.96875 4577.011719 3647.550781 4575.253906 C 3652.128906 4573.496094 3654.421875 4568.347656 3652.671875 4563.765625 "/>
<path fill-rule="evenodd" fill="rgb(0%, 0%, 0%)" fill-opacity="1" d="M 2296.28125 1063.558594 C 2263.960938 1018.921875 2226.800781 981.101562 2187.058594 947.78125 C 2124.238281 895.109375 2055.261719 854.128906 1990.671875 814.578125 C 1970.238281 802.519531 1949.75 790.441406 1929.121094 779.28125 C 1915.039062 771.671875 1900.941406 764.410156 1886.890625 757.660156 C 1825.429688 728.101562 1766.328125 705.640625 1718.300781 694.910156 C 1650.339844 679.730469 1602.550781 690.289062 1589.628906 732.121094 C 1585.230469 745.988281 1586.761719 763.230469 1592.019531 780.730469 C 1598.628906 802.730469 1610.539062 825.308594 1620.421875 839.96875 C 1642.308594 875.589844 1687.449219 912.929688 1741.648438 949.460938 C 1786.238281 979.511719 1836.460938 1009.859375 1885.429688 1036.449219 C 1907.070312 1048.191406 1928.660156 1058.761719 1948.820312 1069.238281 C 2015.648438 1102.269531 2065.21875 1138.890625 2104.308594 1176.089844 C 2192.539062 1260.03125 2228.039062 1347.21875 2280.859375 1406.578125 C 2283.820312 1410.128906 2289.109375 1410.601562 2292.660156 1407.640625 C 2296.210938 1404.679688 2296.679688 1399.390625 2293.71875 1395.839844 C 2243.96875 1332.359375 2213.890625 1241.371094 2129.160156 1151.371094 C 2089.820312 1109.578125 2038.730469 1068.429688 1969.410156 1029.960938 C 1946.078125 1017.710938 1921.328125 1004.351562 1895.648438 991.398438 C 1837.519531 962.089844 1775.839844 932.640625 1726.21875 900.730469 C 1688.511719 876.480469 1657.550781 851.789062 1640.078125 827 C 1631.570312 813.839844 1620.949219 793.769531 1615.828125 774.070312 C 1612.710938 762.070312 1611.691406 750.269531 1615.210938 741.039062 C 1619.808594 729.230469 1629.550781 723.371094 1642.429688 721.160156 C 1660.039062 718.140625 1682.761719 722.128906 1709.21875 729.949219 C 1754.160156 743.238281 1808.191406 769.519531 1865.640625 799.828125 C 1879.101562 806.929688 1892.789062 814.140625 1906.621094 821.429688 C 1927.011719 832.171875 1947.761719 842.910156 1968.21875 854.089844 C 2033.820312 888.589844 2103.550781 924.53125 2168.578125 971.519531 C 2209.101562 1000.800781 2247.851562 1034.089844 2282.300781 1074.550781 C 2285.339844 1078.410156 2290.929688 1079.070312 2294.789062 1076.039062 C 2298.648438 1073.011719 2299.320312 1067.410156 2296.28125 1063.558594 "/>
<path fill-rule="evenodd" fill="rgb(0%, 0%, 0%)" fill-opacity="1" d="M 2171.070312 1219.808594 C 2142.121094 1208.441406 2063.539062 1182.371094 1986.148438 1161.179688 C 1939.460938 1148.398438 1893.300781 1137.730469 1858.878906 1132.121094 C 1829.011719 1127.960938 1798.921875 1122.339844 1768.621094 1119.191406 C 1737.289062 1115.921875 1705.859375 1114.980469 1674.808594 1116.808594 C 1632.53125 1119.308594 1591.011719 1127.578125 1550.988281 1146.109375 C 1528.960938 1156.328125 1519.578125 1169.199219 1517.769531 1182.339844 C 1516.359375 1192.578125 1519.089844 1203.640625 1526.238281 1214.75 C 1537.28125 1231.898438 1559.21875 1249.738281 1581.941406 1266.039062 C 1604.878906 1282.519531 1628.300781 1297.730469 1642.359375 1306.011719 C 1662.371094 1318.21875 1688.339844 1329.898438 1715.839844 1340.578125 C 1755.191406 1355.859375 1797.550781 1368.808594 1828.871094 1378.488281 C 1859.078125 1386.308594 1888.800781 1395.628906 1918.199219 1405.480469 C 1962.730469 1420.410156 2006.308594 1437.160156 2047.988281 1457.511719 C 2118.371094 1491.871094 2183.640625 1534.800781 2240.511719 1589.058594 C 2243.738281 1592.371094 2249.039062 1592.449219 2252.359375 1589.230469 C 2255.679688 1586 2255.75 1580.699219 2252.53125 1577.378906 C 2198.109375 1517.039062 2134.390625 1467.320312 2064.230469 1426.929688 C 2022.390625 1402.851562 1978.378906 1382.089844 1932.71875 1364.640625 C 1914.628906 1357.71875 1896.300781 1351.28125 1877.679688 1345.648438 C 1865.320312 1341.910156 1852.800781 1338.699219 1840.25 1335.519531 C 1808.949219 1328.570312 1766.679688 1319.128906 1727.039062 1307.570312 C 1700.570312 1299.851562 1675.328125 1291.421875 1655.671875 1281.769531 C 1641.398438 1274.46875 1616.519531 1261.929688 1593.871094 1245.859375 C 1580.710938 1236.53125 1568.460938 1225.859375 1559.128906 1215.351562 C 1550.898438 1206.078125 1544.988281 1197.121094 1545.328125 1188.910156 C 1545.589844 1182.519531 1552.109375 1179.179688 1562.988281 1175.238281 C 1600.121094 1161.78125 1637.789062 1158.109375 1675.71875 1158.691406 C 1704.851562 1159.148438 1733.96875 1162.949219 1763.261719 1166.53125 C 1793.308594 1170.199219 1823.480469 1173.601562 1853.261719 1176.921875 C 1894.550781 1180.511719 1953.289062 1190.890625 2009.53125 1201.960938 C 2076.601562 1215.148438 2139.800781 1229.289062 2165.339844 1236.648438 C 2169.988281 1238.230469 2175.039062 1235.738281 2176.621094 1231.089844 C 2178.199219 1226.449219 2175.710938 1221.390625 2171.070312 1219.808594 "/>
<path fill-rule="evenodd" fill="rgb(0%, 0%, 0%)" fill-opacity="1" d="M 2205.160156 1689.410156 C 2181.011719 1686.320312 2127.390625 1677.441406 2061.691406 1669.179688 C 2031.421875 1665.371094 1998.75 1661.589844 1965.21875 1658.820312 C 1941.078125 1656.820312 1916.589844 1655.109375 1892.339844 1654.609375 C 1881.800781 1654.390625 1871.320312 1654.519531 1860.949219 1654.878906 C 1753.011719 1658.558594 1657.820312 1676.859375 1630.328125 1711.339844 C 1615.390625 1728.460938 1610.449219 1744.269531 1611.261719 1758.5 C 1612.898438 1787.160156 1642.71875 1813.128906 1689.988281 1834.261719 C 1712.640625 1844.390625 1738.929688 1854.019531 1767.230469 1862.101562 C 1784.199219 1866.949219 1801.808594 1871.398438 1819.648438 1874.96875 C 1846.351562 1880.308594 1873.449219 1883.890625 1899.019531 1887.320312 C 1947.519531 1893.820312 1990.621094 1898.058594 2016.589844 1902.871094 C 2057.308594 1910.109375 2091.929688 1916.191406 2119.71875 1922.308594 C 2136.628906 1926.03125 2150.878906 1929.660156 2162.320312 1933.648438 C 2166.601562 1935.378906 2171.488281 1933.300781 2173.21875 1929.019531 C 2174.949219 1924.730469 2172.878906 1919.851562 2168.589844 1918.109375 C 2157.050781 1912.78125 2142.550781 1907.488281 2125.269531 1901.890625 C 2097.949219 1893.03125 2063.75 1883.570312 2023.539062 1872.339844 C 1997.660156 1865.308594 1954.550781 1856.660156 1905.851562 1846.769531 C 1880.988281 1841.730469 1854.800781 1835.898438 1828.558594 1830.609375 C 1811.320312 1827.128906 1794.058594 1824.019531 1777.328125 1820.628906 C 1750.191406 1815.140625 1724.410156 1809.789062 1702.210938 1802.550781 C 1665.539062 1790.601562 1637.238281 1777.859375 1635.039062 1756.601562 C 1634.109375 1747.628906 1638.980469 1738.121094 1648.53125 1727.390625 C 1664.550781 1710.96875 1701.53125 1704.660156 1748.449219 1701.671875 C 1780.898438 1699.609375 1817.789062 1700.511719 1856.488281 1701.648438 C 1868.441406 1702 1880.550781 1702.359375 1892.730469 1702.550781 C 1904.800781 1702.730469 1916.941406 1702.710938 1929.070312 1702.710938 C 1976.601562 1702.699219 2023.839844 1703.109375 2066.058594 1704.011719 C 2129.109375 1705.351562 2180.460938 1706.921875 2203.941406 1707.148438 C 2208.839844 1707.480469 2213.089844 1703.78125 2213.421875 1698.890625 C 2213.761719 1693.988281 2210.050781 1689.738281 2205.160156 1689.410156 "/>
</svg>
